<?xml version="1.0" standalone="no"?>
<!DOCTYPE svg PUBLIC "-//W3C//DTD SVG 20010904//EN"
 "http://www.w3.org/TR/2001/REC-SVG-20010904/DTD/svg10.dtd">
<svg version="1.0" xmlns="http://www.w3.org/2000/svg"
 width="100.000000pt" height="100.000000pt" viewBox="0 0 100.000000 100.000000"
 preserveAspectRatio="xMidYMid meet">

<g transform="translate(0.000000,100.000000) scale(0.100000,-0.100000)"
fill="#000000" stroke="none">
<path d="M725 893 c-40 -8 -80 -24 -92 -35 -12 -12 -71 -83 -130 -159 -59 -76
-113 -138 -119 -139 -6 0 -19 -9 -29 -20 -15 -17 -31 -20 -101 -20 -106 0
-114 -7 -114 -100 0 -87 11 -100 86 -100 41 0 54 -4 54 -15 0 -11 -11 -15 -41
-15 -31 0 -47 -6 -70 -29 -39 -40 -39 -82 0 -122 l29 -29 212 0 212 0 29 29
c20 20 29 39 29 61 0 48 -47 90 -99 90 -30 0 -41 4 -41 15 0 11 13 15 53 15
41 0 58 5 72 20 14 16 31 20 82 20 61 0 63 -1 63 -25 0 -14 -7 -28 -15 -31 -8
-4 -15 -10 -15 -15 0 -5 7 -9 15 -9 8 0 15 -7 15 -15 0 -9 -7 -18 -15 -21 -8
-4 -15 -10 -15 -15 0 -5 7 -9 15 -9 8 0 15 -7 15 -15 0 -9 -7 -18 -15 -21 -19
-8 -19 -24 0 -24 8 0 15 -7 15 -15 0 -8 5 -15 10 -15 6 0 10 9 10 20 0 11 7
23 15 26 8 4 15 10 15 15 0 5 -7 9 -15 9 -8 0 -15 7 -15 15 0 9 7 18 15 21 8
4 15 10 15 15 0 5 -7 9 -15 9 -8 0 -15 7 -15 15 0 9 7 18 15 21 8 4 15 10 15
15 0 5 -7 9 -15 9 -8 0 -15 9 -15 19 0 10 7 21 15 25 9 3 15 18 15 36 0 18 -6
33 -15 36 -12 5 -15 30 -15 140 0 83 4 134 10 134 6 0 10 9 10 20 0 11 -4 20
-10 20 -14 0 -13 86 2 109 9 15 9 23 -1 35 -16 19 -24 19 -116 -1z m105 -15
c0 -7 -23 -28 -50 -47 l-50 -34 0 -209 0 -208 -25 0 -25 0 0 209 c0 203 -1
209 -21 214 -15 4 -20 12 -17 29 3 20 13 25 78 40 94 20 110 21 110 6z m-260
-207 c-81 -108 -85 -111 -122 -111 -47 0 -52 -9 71 143 l94 118 20 -20 20 -20
-83 -110z m240 114 c0 -32 -2 -35 -30 -35 -37 0 -41 30 -7 53 32 23 37 21 37
-18z m-154 -313 c-3 -2 -29 16 -58 42 -29 25 -60 46 -70 46 -12 0 3 26 55 95
l72 95 3 -136 c1 -75 0 -139 -2 -142z m184 258 c0 -5 -20 -10 -45 -10 -25 0
-45 5 -45 10 0 6 20 10 45 10 25 0 45 -4 45 -10z m-30 -155 l0 -135 -30 0 -30
0 0 135 0 135 30 0 30 0 0 -135z m-212 -87 c34 -29 62 -58 62 -65 0 -9 -19
-13 -69 -13 -61 0 -72 3 -85 22 -13 18 -16 19 -16 6 0 -26 32 -38 105 -38 l66
0 -3 -27 -3 -28 -245 0 -245 0 0 75 0 75 96 3 c87 2 97 5 102 22 5 18 14 20
89 20 l83 0 63 -52z m252 -88 c0 -29 -1 -30 -50 -30 -49 0 -50 1 -50 30 0 29
1 30 50 30 49 0 50 -1 50 -30z m-330 -95 c0 -12 -19 -15 -110 -15 -91 0 -110
3 -110 15 0 12 19 15 110 15 91 0 110 -3 110 -15z m117 -57 c29 -27 29 -65 1
-95 -21 -23 -25 -23 -227 -23 -196 0 -206 1 -228 22 -29 27 -29 65 -1 95 21
23 25 23 227 23 196 0 206 -1 228 -22z"/>
<path d="M491 474 c0 -11 3 -14 6 -6 3 7 2 16 -1 19 -3 4 -6 -2 -5 -13z"/>
<path d="M218 463 c18 -2 45 -2 60 0 15 2 0 4 -33 4 -33 0 -45 -2 -27 -4z"/>
<path d="M208 433 c12 -2 30 -2 40 0 9 3 -1 5 -23 4 -22 0 -30 -2 -17 -4z"/>
<path d="M218 403 c18 -2 45 -2 60 0 15 2 0 4 -33 4 -33 0 -45 -2 -27 -4z"/>
<path d="M198 373 c7 -3 16 -2 19 1 4 3 -2 6 -13 5 -11 0 -14 -3 -6 -6z"/>
<path d="M253 373 c9 -2 25 -2 35 0 9 3 1 5 -18 5 -19 0 -27 -2 -17 -5z"/>
<path d="M200 225 c-26 -32 13 -81 48 -59 22 14 27 41 12 59 -16 19 -44 19
-60 0z m55 -25 c0 -18 -6 -26 -23 -28 -13 -2 -25 3 -28 12 -10 26 4 48 28 44
17 -2 23 -10 23 -28z"/>
<path d="M320 225 c-26 -32 13 -81 48 -59 22 14 27 41 12 59 -16 19 -44 19
-60 0z m55 -25 c0 -18 -6 -26 -23 -28 -13 -2 -25 3 -28 12 -10 26 4 48 28 44
17 -2 23 -10 23 -28z"/>
<path d="M440 225 c-15 -18 -10 -45 13 -59 34 -22 73 27 47 59 -16 19 -44 19
-60 0z m55 -25 c0 -18 -6 -26 -23 -28 -13 -2 -25 3 -28 12 -10 26 4 48 28 44
17 -2 23 -10 23 -28z"/>
<path d="M560 225 c-15 -18 -10 -45 13 -59 34 -22 73 27 47 59 -16 19 -44 19
-60 0z m55 -25 c0 -18 -6 -26 -23 -28 -13 -2 -25 3 -28 12 -10 26 4 48 28 44
17 -2 23 -10 23 -28z"/>
</g>
</svg>
